<svg id="svg" version="1.1" xmlns="http://www.w3.org/2000/svg" viewBox="0 0 146 130" style="display: block;"><path d="M0,0 L146,0 L146,130 L0,130 Z M71,23 L71,24 L67,24 L67,25 L65,25 L65,26 L55,26 L55,25 L46,25 L46,26 L40,26 L40,27 L37,27 L37,28 L35,28 L35,29 L32,29 L32,30 L31,30 L31,32 L27,32 L27,33 L26,33 L26,34 L25,34 L25,35 L24,35 L24,36 L23,36 L23,37 L22,37 L22,38 L21,38 L21,39 L20,39 L20,41 L19,41 L19,46 L20,46 L20,47 L22,47 L22,48 L23,48 L23,51 L24,51 L24,53 L25,53 L25,54 L26,54 L26,55 L27,55 L27,56 L28,56 L28,58 L29,58 L29,59 L30,59 L30,60 L31,60 L31,61 L32,61 L32,62 L33,62 L33,63 L34,63 L34,64 L35,64 L35,65 L36,65 L36,66 L37,66 L37,67 L39,67 L39,68 L40,68 L40,69 L41,69 L41,70 L42,70 L42,71 L44,71 L44,72 L46,72 L46,73 L47,73 L47,74 L49,74 L49,75 L51,75 L51,76 L53,76 L53,77 L57,77 L57,78 L58,78 L58,79 L62,79 L62,80 L64,80 L64,81 L65,81 L65,84 L66,84 L66,90 L67,90 L67,97 L66,97 L66,99 L65,99 L65,101 L64,101 L64,102 L63,102 L63,103 L62,103 L62,107 L61,107 L61,108 L59,108 L59,109 L55,109 L55,110 L47,110 L47,112 L48,112 L48,113 L50,113 L50,114 L51,114 L51,115 L56,115 L56,116 L61,116 L61,115 L64,115 L64,114 L68,114 L68,113 L69,113 L69,112 L71,112 L71,111 L72,111 L72,109 L73,109 L73,108 L75,108 L75,107 L76,107 L76,106 L77,106 L77,105 L78,105 L78,104 L80,104 L80,103 L81,103 L81,102 L82,102 L82,101 L83,101 L83,99 L84,99 L84,98 L85,98 L85,97 L86,97 L86,96 L87,96 L87,94 L88,94 L88,93 L89,93 L89,92 L90,92 L90,90 L91,90 L91,88 L92,88 L92,86 L93,86 L93,84 L94,84 L94,82 L95,82 L95,80 L96,80 L96,78 L98,78 L98,77 L104,77 L104,76 L107,76 L107,73 L109,73 L109,72 L111,72 L111,71 L112,71 L112,70 L114,70 L114,69 L116,69 L116,68 L117,68 L117,67 L118,67 L118,66 L119,66 L119,65 L120,65 L120,64 L122,64 L122,63 L123,63 L123,62 L124,62 L124,61 L126,61 L126,58 L127,58 L127,57 L128,57 L128,56 L129,56 L129,55 L130,55 L130,53 L131,53 L131,52 L132,52 L132,50 L133,50 L133,48 L134,48 L134,46 L135,46 L135,45 L136,45 L136,40 L135,40 L135,39 L134,39 L134,38 L133,38 L133,37 L132,37 L132,36 L131,36 L131,35 L130,35 L130,33 L128,33 L128,32 L125,32 L125,30 L124,30 L124,29 L120,29 L120,28 L117,28 L117,27 L114,27 L114,26 L111,26 L111,25 L98,25 L98,26 L96,26 L96,29 L95,29 L95,28 L94,28 L94,27 L93,27 L93,26 L90,26 L90,25 L88,25 L88,24 L84,24 L84,23 Z " transform="translate(0,0)" style="fill: #000001;"/><path d="M0,0 L13,0 L13,1 L17,1 L17,2 L19,2 L19,3 L22,3 L22,6 L23,6 L23,7 L24,7 L24,10 L25,10 L25,12 L26,12 L26,14 L27,14 L27,20 L28,20 L28,36 L27,36 L27,39 L26,39 L26,44 L25,44 L25,46 L24,46 L24,50 L23,50 L23,51 L22,51 L22,54 L21,54 L21,56 L20,56 L20,57 L19,57 L19,59 L18,59 L18,61 L17,61 L17,62 L16,62 L16,63 L15,63 L15,65 L14,65 L14,66 L13,66 L13,67 L12,67 L12,68 L11,68 L11,69 L10,69 L10,70 L9,70 L9,71 L8,71 L8,72 L7,72 L7,73 L6,73 L6,74 L4,74 L4,75 L2,75 L2,76 L1,76 L1,77 L0,77 L0,78 L-2,78 L-2,79 L-5,79 L-5,74 L-4,74 L-4,72 L-3,72 L-3,69 L-2,69 L-2,68 L-1,68 L-1,66 L0,66 L0,43 L-1,43 L-1,41 L-2,41 L-2,36 L-3,36 L-3,35 L-4,35 L-4,33 L-5,33 L-5,31 L-6,31 L-6,29 L-7,29 L-7,27 L-8,27 L-8,26 L-9,26 L-9,25 L-10,25 L-10,23 L-11,23 L-11,22 L-12,22 L-12,21 L-13,21 L-13,15 L-12,15 L-12,10 L-11,10 L-11,7 L-10,7 L-10,5 L-9,5 L-9,4 L-8,4 L-8,3 L-6,3 L-6,2 L-4,2 L-4,1 L0,1 Z " transform="translate(71,23)" style="fill: #815FC9;"/><path d="M0,0 L6,0 L6,1 L12,1 L12,2 L14,2 L14,3 L16,3 L16,4 L18,4 L18,5 L20,5 L20,6 L21,6 L21,7 L23,7 L23,8 L25,8 L25,9 L26,9 L26,10 L27,10 L27,30 L28,30 L28,32 L29,32 L29,36 L30,36 L30,38 L31,38 L31,42 L32,42 L32,43 L33,43 L33,45 L29,45 L29,44 L25,44 L25,43 L23,43 L23,42 L21,42 L21,41 L19,41 L19,40 L18,40 L18,39 L16,39 L16,38 L14,38 L14,37 L13,37 L13,36 L12,36 L12,35 L11,35 L11,34 L9,34 L9,33 L8,33 L8,32 L7,32 L7,31 L6,31 L6,30 L5,30 L5,29 L4,29 L4,28 L3,28 L3,27 L2,27 L2,26 L1,26 L1,25 L0,25 L0,23 L-1,23 L-1,22 L-2,22 L-2,21 L-3,21 L-3,20 L-4,20 L-4,18 L-5,18 L-5,15 L-6,15 L-6,14 L-8,14 L-8,13 L-9,13 L-9,8 L-8,8 L-8,6 L-7,6 L-7,5 L-6,5 L-6,4 L-5,4 L-5,3 L-2,3 L-2,2 L-1,2 L-1,1 L0,1 Z " transform="translate(28,33)" style="fill: #C63A8A;"/><path d="M0,0 L9,0 L9,2 L10,2 L10,3 L11,3 L11,4 L12,4 L12,5 L13,5 L13,6 L14,6 L14,7 L15,7 L15,12 L14,12 L14,13 L13,13 L13,15 L12,15 L12,17 L11,17 L11,19 L10,19 L10,20 L9,20 L9,22 L8,22 L8,23 L7,23 L7,24 L6,24 L6,25 L5,25 L5,28 L3,28 L3,29 L2,29 L2,30 L1,30 L1,31 L-1,31 L-1,32 L-2,32 L-2,33 L-3,33 L-3,34 L-4,34 L-4,35 L-5,35 L-5,36 L-7,36 L-7,37 L-9,37 L-9,38 L-10,38 L-10,39 L-12,39 L-12,40 L-14,40 L-14,41 L-16,41 L-16,42 L-18,42 L-18,43 L-21,43 L-21,37 L-20,37 L-20,31 L-19,31 L-19,14 L-20,14 L-20,10 L-19,10 L-19,9 L-18,9 L-18,8 L-16,8 L-16,7 L-15,7 L-15,6 L-13,6 L-13,5 L-12,5 L-12,4 L-10,4 L-10,3 L-8,3 L-8,2 L-5,2 L-5,1 L0,1 Z " transform="translate(121,33)" style="fill: #C73A8B;"/><path d="M0,0 L1,0 L1,5 L0,5 L0,9 L-1,9 L-1,11 L-2,11 L-2,13 L-3,13 L-3,15 L-4,15 L-4,17 L-5,17 L-5,19 L-6,19 L-6,21 L-7,21 L-7,23 L-8,23 L-8,25 L-9,25 L-9,26 L-10,26 L-10,27 L-11,27 L-11,29 L-12,29 L-12,30 L-13,30 L-13,31 L-14,31 L-14,32 L-15,32 L-15,34 L-16,34 L-16,35 L-17,35 L-17,36 L-18,36 L-18,37 L-20,37 L-20,38 L-21,38 L-21,39 L-22,39 L-22,40 L-23,40 L-23,41 L-25,41 L-25,42 L-26,42 L-26,44 L-27,44 L-27,45 L-29,45 L-29,46 L-30,46 L-30,47 L-34,47 L-34,48 L-37,48 L-37,49 L-42,49 L-42,48 L-47,48 L-47,47 L-48,47 L-48,46 L-50,46 L-50,45 L-51,45 L-51,43 L-43,43 L-43,42 L-39,42 L-39,41 L-37,41 L-37,40 L-35,40 L-35,39 L-33,39 L-33,38 L-31,38 L-31,37 L-29,37 L-29,36 L-27,36 L-27,35 L-25,35 L-25,34 L-24,34 L-24,33 L-23,33 L-23,32 L-21,32 L-21,31 L-20,31 L-20,30 L-18,30 L-18,29 L-17,29 L-17,28 L-16,28 L-16,27 L-15,27 L-15,26 L-14,26 L-14,25 L-13,25 L-13,24 L-12,24 L-12,23 L-11,23 L-11,21 L-10,21 L-10,20 L-9,20 L-9,19 L-8,19 L-8,17 L-7,17 L-7,16 L-6,16 L-6,14 L-5,14 L-5,12 L-4,12 L-4,10 L-3,10 L-3,8 L-2,8 L-2,6 L-1,6 L-1,4 L0,4 Z " transform="translate(98,67)" style="fill: #18A6DA;"/><path d="M0,0 L1,0 L1,4 L2,4 L2,8 L3,8 L3,11 L4,11 L4,14 L7,14 L7,13 L8,13 L8,12 L9,12 L9,11 L10,11 L10,10 L12,10 L12,9 L14,9 L14,8 L18,8 L18,7 L20,7 L20,6 L23,6 L23,5 L26,5 L26,3 L28,3 L28,4 L29,4 L29,6 L32,6 L32,7 L25,7 L25,8 L20,8 L20,9 L17,9 L17,10 L15,10 L15,11 L13,11 L13,12 L12,12 L12,13 L10,13 L10,14 L9,14 L9,15 L7,15 L7,16 L6,16 L6,17 L5,17 L5,21 L6,21 L6,38 L5,38 L5,44 L4,44 L4,50 L7,50 L7,49 L9,49 L9,48 L11,48 L11,50 L8,50 L8,51 L2,51 L2,52 L1,52 L1,50 L2,50 L2,46 L3,46 L3,41 L2,41 L2,45 L1,45 L1,47 L0,47 L0,49 L-1,49 L-1,51 L-2,51 L-2,53 L-3,53 L-3,55 L-4,55 L-4,57 L-5,57 L-5,58 L-7,58 L-7,56 L-6,56 L-6,54 L-5,54 L-5,53 L-4,53 L-4,51 L-3,51 L-3,48 L-2,48 L-2,47 L-1,47 L-1,43 L0,43 L0,41 L1,41 L1,36 L2,36 L2,33 L3,33 L3,17 L2,17 L2,11 L1,11 L1,9 L0,9 L0,7 L-1,7 L-1,4 L-2,4 L-2,3 L-3,3 L-3,1 L-2,1 L-2,2 L-1,2 L-1,3 L0,3 Z M-8,58 L-7,58 L-7,59 L-8,59 Z M-9,59 L-8,59 L-8,60 L-9,60 Z M-10,60 L-9,60 L-9,61 L-10,61 Z " transform="translate(96,26)" style="fill: #2F275D;"/><path d="M0,0 L1,0 L1,1 L2,1 L2,2 L3,2 L3,3 L4,3 L4,5 L5,5 L5,6 L6,6 L6,8 L7,8 L7,9 L8,9 L8,12 L9,12 L9,14 L10,14 L10,18 L11,18 L11,21 L12,21 L12,39 L11,39 L11,40 L10,40 L10,38 L9,38 L9,34 L8,34 L8,33 L7,33 L7,31 L6,31 L6,30 L5,30 L5,28 L4,28 L4,25 L3,25 L3,22 L2,22 L2,19 L1,19 L1,14 L0,14 Z " transform="translate(57,46)" style="fill: #18AFE6;"/><path d="M0,0 L4,0 L4,1 L3,1 L3,2 L2,2 L2,4 L1,4 L1,7 L0,7 L0,12 L-1,12 L-1,18 L0,18 L0,19 L1,19 L1,20 L2,20 L2,22 L3,22 L3,23 L4,23 L4,24 L5,24 L5,26 L6,26 L6,28 L7,28 L7,30 L6,30 L6,29 L5,29 L5,28 L4,28 L4,26 L3,26 L3,25 L2,25 L2,23 L1,23 L1,22 L0,22 L0,21 L-1,21 L-1,20 L-2,20 L-2,34 L-1,34 L-1,39 L0,39 L0,42 L1,42 L1,45 L2,45 L2,48 L3,48 L3,50 L4,50 L4,51 L5,51 L5,53 L6,53 L6,54 L7,54 L7,58 L6,58 L6,55 L5,55 L5,54 L3,54 L3,53 L-1,53 L-1,52 L2,52 L2,50 L1,50 L1,49 L0,49 L0,45 L-1,45 L-1,43 L-2,43 L-2,39 L-3,39 L-3,37 L-4,37 L-4,17 L-5,17 L-5,16 L-6,16 L-6,15 L-8,15 L-8,14 L-10,14 L-10,13 L-11,13 L-11,12 L-13,12 L-13,11 L-15,11 L-15,10 L-17,10 L-17,9 L-19,9 L-19,8 L-25,8 L-25,7 L-31,7 L-31,8 L-32,8 L-32,9 L-33,9 L-33,10 L-35,10 L-35,9 L-34,9 L-34,8 L-33,8 L-33,7 L-32,7 L-32,6 L-28,6 L-28,4 L-27,4 L-27,3 L-26,3 L-26,5 L-25,5 L-25,6 L-19,6 L-19,7 L-18,7 L-18,8 L-15,8 L-15,9 L-11,9 L-11,10 L-10,10 L-10,11 L-9,11 L-9,12 L-7,12 L-7,13 L-6,13 L-6,14 L-5,14 L-5,15 L-3,15 L-3,9 L-2,9 L-2,6 L-1,6 L-1,3 L0,3 Z " transform="translate(59,26)" style="fill: #2C285C;"/><path d="M0,0 L13,0 L13,1 L16,1 L16,2 L19,2 L19,3 L22,3 L22,4 L24,4 L24,6 L21,6 L21,7 L18,7 L18,8 L16,8 L16,9 L12,9 L12,10 L10,10 L10,11 L8,11 L8,12 L7,12 L7,13 L6,13 L6,14 L5,14 L5,15 L2,15 L2,12 L1,12 L1,9 L0,9 L0,5 L-1,5 L-1,1 L0,1 Z " transform="translate(98,25)" style="fill: #7B5BBC;"/><path d="M0,0 L14,0 L14,2 L13,2 L13,5 L12,5 L12,8 L11,8 L11,14 L9,14 L9,13 L8,13 L8,12 L7,12 L7,11 L5,11 L5,10 L4,10 L4,9 L3,9 L3,8 L1,8 L1,7 L0,7 L0,6 L-1,6 L-1,5 L-3,5 L-3,4 L-5,4 L-5,3 L-6,3 L-6,2 L-5,2 L-5,1 L0,1 Z " transform="translate(45,27)" style="fill: #815FC7;"/><path d="M0,0 L2,0 L2,2 L3,2 L3,3 L4,3 L4,8 L5,8 L5,10 L6,10 L6,33 L5,33 L5,35 L4,35 L4,36 L3,36 L3,39 L2,39 L2,34 L1,34 L1,28 L2,28 L2,30 L3,30 L3,29 L4,29 L4,11 L3,11 L3,8 L2,8 L2,4 L1,4 L1,2 L0,2 Z " transform="translate(65,56)" style="fill: #2D2A5E;"/><path d="M0,0 L1,0 L1,2 L0,2 L0,3 L-1,3 L-1,4 L-2,4 L-2,6 L-3,6 L-3,7 L-4,7 L-4,8 L-5,8 L-5,9 L-6,9 L-6,10 L-7,10 L-7,11 L-8,11 L-8,12 L-9,12 L-9,13 L-11,13 L-11,14 L-12,14 L-12,15 L-14,15 L-14,16 L-15,16 L-15,17 L-16,17 L-16,18 L-18,18 L-18,19 L-20,19 L-20,20 L-22,20 L-22,21 L-24,21 L-24,22 L-26,22 L-26,23 L-27,23 L-27,19 L-26,19 L-26,18 L-25,18 L-25,17 L-24,17 L-24,15 L-23,15 L-23,18 L-20,18 L-20,17 L-18,17 L-18,16 L-17,16 L-17,15 L-16,15 L-16,14 L-14,14 L-14,13 L-12,13 L-12,12 L-11,12 L-11,11 L-10,11 L-10,10 L-9,10 L-9,9 L-8,9 L-8,8 L-7,8 L-7,7 L-6,7 L-6,6 L-5,6 L-5,5 L-4,5 L-4,4 L-3,4 L-3,3 L-2,3 L-2,2 L-1,2 L-1,1 L0,1 Z " transform="translate(89,84)" style="fill: #332A61;"/><path d="M0,0 L9,0 L9,1 L13,1 L13,2 L-1,2 L-1,3 L-6,3 L-6,4 L-7,4 L-7,5 L-6,5 L-6,6 L-4,6 L-4,7 L-2,7 L-2,8 L-1,8 L-1,9 L0,9 L0,10 L-2,10 L-2,9 L-5,9 L-5,8 L-6,8 L-6,7 L-12,7 L-12,6 L-13,6 L-13,4 L-11,4 L-11,3 L-9,3 L-9,2 L-6,2 L-6,1 L0,1 Z " transform="translate(46,25)" style="fill: #684F9C;"/></svg>