<?xml version="1.0" standalone="no"?>
<!DOCTYPE svg PUBLIC "-//W3C//DTD SVG 20010904//EN"
 "http://www.w3.org/TR/2001/REC-SVG-20010904/DTD/svg10.dtd">
<svg version="1.0" xmlns="http://www.w3.org/2000/svg"
 width="200.000000pt" height="200.000000pt" viewBox="0 0 200.000000 200.000000"
 preserveAspectRatio="xMidYMid meet">

<g transform="translate(0.000000,200.000000) scale(0.100000,-0.100000)"
fill="#000000" stroke="none">
<path d="M0 1000 l0 -1000 1000 0 1000 0 0 1000 0 1000 -1000 0 -1000 0 0
-1000z m530 189 c38 -20 40 -23 40 -69 0 -30 6 -52 15 -60 22 -19 38 -83 31
-124 -12 -62 -98 -139 -156 -139 -27 0 -84 31 -112 60 -51 54 -61 114 -28 178
12 23 20 59 20 86 0 44 2 48 38 67 48 27 102 27 152 1z"/>
<path d="M365 1160 c-15 -16 -17 -26 -9 -47 14 -39 37 -50 76 -35 21 8 36 8
42 2 16 -16 51 -12 69 8 45 50 -13 114 -73 82 -13 -7 -21 -7 -25 0 -11 17 -61
11 -80 -10z m80 -29 c7 -12 -12 -24 -25 -16 -11 7 -4 25 10 25 5 0 11 -4 15
-9z m55 0 c0 -14 -18 -23 -30 -16 -6 4 -8 11 -5 16 8 12 35 12 35 0z"/>
<path d="M450 1059 c0 -5 5 -7 10 -4 6 3 10 8 10 11 0 2 -4 4 -10 4 -5 0 -10
-5 -10 -11z"/>
<path d="M555 1041 c-3 -5 -52 -9 -110 -7 -81 1 -106 -1 -110 -12 -32 -85 68
-172 164 -143 47 14 91 62 91 99 0 56 -19 89 -35 63z"/>
</g>
</svg>
